<svg xmlns="http://www.w3.org/2000/svg" width="880" height="520" viewBox="0 0 880 520" role="img" aria-label="Group summary chart">
  <rect width="880" height="520" fill="#fbfbfd"/>
  <text x="40" y="42" font-family="Arial, sans-serif" font-size="24" font-weight="700" fill="#1f2937">Средние по группам моделей</text>
  <text x="40" y="70" font-family="Arial, sans-serif" font-size="13" fill="#4b5563">Западные: ChatGPT + Gemini + Grok + Claude. Российские: GigaChat + YandexGPT. Восточные: DeepSeek.</text>

  <g font-family="Arial, sans-serif" font-size="12" fill="#6b7280">
    <line x1="150" y1="110" x2="150" y2="415" stroke="#d1d5db"/>
    <line x1="250" y1="110" x2="250" y2="415" stroke="#eef2f7"/>
    <line x1="350" y1="110" x2="350" y2="415" stroke="#eef2f7"/>
    <line x1="450" y1="110" x2="450" y2="415" stroke="#eef2f7"/>
    <line x1="550" y1="110" x2="550" y2="415" stroke="#eef2f7"/>
    <line x1="650" y1="110" x2="650" y2="415" stroke="#d1d5db"/>
    <text x="146" y="438">0</text><text x="246" y="438">1</text><text x="346" y="438">2</text>
    <text x="446" y="438">3</text><text x="546" y="438">4</text><text x="646" y="438">5</text>
  </g>

  <g font-family="Arial, sans-serif" font-size="13" fill="#111827">
    <text x="40" y="126" font-weight="700">Запад</text>
    <rect x="150" y="112" width="130" height="18" rx="3" fill="#6366f1"/><text x="288" y="126">Западные 1.3</text>
    <rect x="150" y="136" width="150" height="18" rx="3" fill="#0ea5e9"/><text x="308" y="150">Российские 1.5</text>
    <rect x="150" y="160" width="160" height="18" rx="3" fill="#22c55e"/><text x="318" y="174">DeepSeek 1.6</text>

    <text x="40" y="216" font-weight="700">Экономика</text>
    <rect x="150" y="202" width="280" height="18" rx="3" fill="#6366f1"/><text x="438" y="216">Западные 2.8</text>
    <rect x="150" y="226" width="290" height="18" rx="3" fill="#0ea5e9"/><text x="448" y="240">Российские 2.9</text>
    <rect x="150" y="250" width="290" height="18" rx="3" fill="#22c55e"/><text x="448" y="264">DeepSeek 2.9</text>

    <text x="40" y="306" font-weight="700">Внутр. кризис</text>
    <rect x="150" y="292" width="450" height="18" rx="3" fill="#6366f1"/><text x="608" y="306">Западные 4.5</text>
    <rect x="150" y="316" width="455" height="18" rx="3" fill="#0ea5e9"/><text x="613" y="330">Российские 4.6</text>
    <rect x="150" y="340" width="430" height="18" rx="3" fill="#22c55e"/><text x="588" y="354">DeepSeek 4.3</text>
  </g>

  <g font-family="Arial, sans-serif" font-size="13" fill="#111827">
    <rect x="690" y="120" width="16" height="16" fill="#6366f1"/><text x="716" y="133">западные</text>
    <rect x="690" y="146" width="16" height="16" fill="#0ea5e9"/><text x="716" y="159">российские</text>
    <rect x="690" y="172" width="16" height="16" fill="#22c55e"/><text x="716" y="185">восточные</text>
  </g>

  <text x="40" y="490" font-family="Arial, sans-serif" font-size="12" fill="#6b7280">Главное: группы расходятся по роли Запада слабо; все очень высоко ставят внутренний кризис.</text>
</svg>
