<svg xmlns="http://www.w3.org/2000/svg" width="820" height="620" viewBox="0 0 820 620" role="img" aria-label="Зубок: историко-интерпретационный компас">
<rect width="820" height="620" fill="#fbfbfd"/>
<text x="40" y="42" font-family="Arial, sans-serif" font-size="24" font-weight="700" fill="#1f2937">Зубок: историко-интерпретационный компас</text>
<text x="40" y="70" font-family="Arial, sans-serif" font-size="13" font-weight="400" fill="#4b5563">X: внутренние причины - внешнее давление. Y: неизбежность - роль решений и ошибок.</text>
<rect x="120" y="94" width="430" height="430" fill="#ffffff" stroke="#d1d5db"/>
<line x1="163.0" y1="94" x2="163.0" y2="524" stroke="#eef2f7" stroke-width="1"/>
<line x1="120" y1="137.0" x2="550" y2="137.0" stroke="#eef2f7" stroke-width="1"/>
<line x1="206.0" y1="94" x2="206.0" y2="524" stroke="#eef2f7" stroke-width="1"/>
<line x1="120" y1="180.0" x2="550" y2="180.0" stroke="#eef2f7" stroke-width="1"/>
<line x1="249.0" y1="94" x2="249.0" y2="524" stroke="#eef2f7" stroke-width="1"/>
<line x1="120" y1="223.0" x2="550" y2="223.0" stroke="#eef2f7" stroke-width="1"/>
<line x1="292.0" y1="94" x2="292.0" y2="524" stroke="#eef2f7" stroke-width="1"/>
<line x1="120" y1="266.0" x2="550" y2="266.0" stroke="#eef2f7" stroke-width="1"/>
<line x1="335.0" y1="94" x2="335.0" y2="524" stroke="#eef2f7" stroke-width="1"/>
<line x1="120" y1="309.0" x2="550" y2="309.0" stroke="#eef2f7" stroke-width="1"/>
<line x1="378.0" y1="94" x2="378.0" y2="524" stroke="#eef2f7" stroke-width="1"/>
<line x1="120" y1="352.0" x2="550" y2="352.0" stroke="#eef2f7" stroke-width="1"/>
<line x1="421.0" y1="94" x2="421.0" y2="524" stroke="#eef2f7" stroke-width="1"/>
<line x1="120" y1="395.0" x2="550" y2="395.0" stroke="#eef2f7" stroke-width="1"/>
<line x1="464.0" y1="94" x2="464.0" y2="524" stroke="#eef2f7" stroke-width="1"/>
<line x1="120" y1="438.0" x2="550" y2="438.0" stroke="#eef2f7" stroke-width="1"/>
<line x1="507.0" y1="94" x2="507.0" y2="524" stroke="#eef2f7" stroke-width="1"/>
<line x1="120" y1="481.0" x2="550" y2="481.0" stroke="#eef2f7" stroke-width="1"/>
<line x1="120" y1="309.0" x2="550" y2="309.0" stroke="#9ca3af" stroke-width="1.5"/>
<line x1="335.0" y1="94" x2="335.0" y2="524" stroke="#9ca3af" stroke-width="1.5"/>
<text x="116" y="549" font-family="Arial, sans-serif" font-size="12" font-weight="400" fill="#4b5563">внутренние причины</text>
<text x="445" y="549" font-family="Arial, sans-serif" font-size="12" font-weight="400" fill="#4b5563">внешнее давление</text>
<text x="562" y="103" font-family="Arial, sans-serif" font-size="12" font-weight="400" fill="#4b5563">ошибки / решения</text>
<text x="562" y="524" font-family="Arial, sans-serif" font-size="12" font-weight="400" fill="#4b5563">структура / неизбежность</text>
<rect x="148.70000000000002" y="139.9" width="20" height="20" transform="rotate(45 158.70000000000002 149.9)" fill="#7c3aed" fill-opacity="0.95" stroke="#ffffff" stroke-width="2"/>
<text x="174.7" y="137.9" font-family="Arial, sans-serif" font-size="13" font-weight="700" fill="#111827">Зубок</text>
<rect x="620" y="100" width="16" height="16" fill="#7c3aed"/>
<text x="646" y="113" font-family="Arial, sans-serif" font-size="13" font-weight="400" fill="#111827">Зубок, Collapse</text>
<text x="40" y="586" font-family="Arial, sans-serif" font-size="12" font-weight="400" fill="#6b7280">Книга Зубока: внутренний perfect storm, высокая роль Горбачева, Ельцина и элитных решений.</text>
</svg>